<?xml version="1.0" encoding="UTF-8"?>
<svg id="Layer_1" data-name="Layer 1" xmlns="http://www.w3.org/2000/svg" viewBox="0 0 96.04 8.01">
  <path d="M1.62,1.18l3.3,6.44h3.82l3.24-6.45h1.63V0h-4.89v1.17h1.41l-2.36,4.69L5.37,1.18h1.72V0H0v1.17h1.62Z"/>
  <path d="M28.35,0c-3.28,0-5.03,1.76-5.03,3.97s1.68,4.03,5.05,4.03,5.03-1.79,5.03-4.03c0-2.21-1.77-3.97-5.05-3.97ZM28.31,6.8c-1.2-.02-1.73-1.45-1.7-2.86.02-1.47.68-2.75,1.8-2.72,1.12.02,1.72,1.33,1.69,2.79-.02,1.38-.55,2.82-1.79,2.8h0Z"/>
  <path d="M65.72,1.17V0h6.54v1.16h-1.63v5.26h1.51c.3.03.6-.02.88-.12.28-.11.54-.27.76-.5.22-.22.39-.49.51-.78.12-.3.18-.62.17-.94h1.08v3.52h-9.82v-1.18h1.65V1.17h-1.65Z"/>
  <path d="M44.37,1.17l3.3,6.44h3.82l3.24-6.45h1.62V0h-4.89v1.17h1.41l-2.36,4.69-2.39-4.69h1.72V0h-7.09v1.17h1.62Z"/>
  <path d="M90.99,0c-3.28,0-5.03,1.76-5.03,3.97s1.68,4.03,5.05,4.03,5.03-1.79,5.03-4.03c0-2.21-1.77-3.97-5.05-3.97ZM90.95,6.8c-1.2-.02-1.73-1.45-1.7-2.86.02-1.47.68-2.75,1.8-2.72,1.12.02,1.72,1.33,1.69,2.79-.02,1.38-.56,2.82-1.79,2.8Z"/>
</svg>